<svg xmlns="http://www.w3.org/2000/svg" id="Component_44_1" width="227" height="227" data-name="Component 44 – 1" viewBox="0 0 227 227">
    <defs>
        <style>
            .cls-1{fill:#212121}.cls-2{fill:#ffe281}.cls-13,.cls-3,.cls-4{fill:#3f4d98}.cls-5,.cls-7{fill:#fff}.cls-5{opacity:.192}.cls-6,.cls-8{fill:#f4f4f4}.cls-6{font-size:28px;font-family:Roboto-Bold,Roboto;font-weight:700;letter-spacing:.018em}.cls-9{fill:#fffaed}.cls-10{fill:#eaecf7;stroke:rgba(0,0,0,0);opacity:.503}.cls-11{fill:none}.cls-12,.cls-13{stroke:none}
        </style>
    </defs>
    <g id="Group_19651" data-name="Group 19651" transform="translate(-2634 -198)">
        <g id="Group_19682" data-name="Group 19682" transform="translate(2679 223.839)">
            <g id="Group_19546" data-name="Group 19546" transform="translate(-2710.505 -170)">
                <path id="Path_10733" d="M627.358 295.228h-8.516V279.5c0-17.748-14.883-32.5-33.549-32.771a35.061 35.061 0 0 0-24.317 9.343 31.667 31.667 0 0 0-10.156 22.992v16.164h-8.5c-7.818.023-14.148 6.043-14.173 13.475.024 72.1 113.354 72.1 113.374 0-.021-7.431-6.347-13.452-14.163-13.475zm-37.553 42.039c.017 25.707-9.917 24.585-9.917-.012a10.6 10.6 0 0 1-6.064-12.087 11.456 11.456 0 0 1 22.046 0 10.6 10.6 0 0 1-6.064 12.087zm19.132-42.039h-48.2v-16.164c0-12.65 10.786-22.905 24.09-22.905s24.09 10.255 24.09 22.905z" class="cls-1" data-name="Path 10733" transform="translate(2193.355 -76.727)"/>
                <circle id="Ellipse_762" cx="31.787" cy="31.787" r="31.787" class="cls-2" data-name="Ellipse 762" transform="translate(2747 233.379)"/>
                <path id="Path_10733-2" d="M627.358 293.139h-85.035a14.273 14.273 0 0 0-14.173 14.285v68.553a14.273 14.273 0 0 0 14.173 14.285h85.035a14.267 14.267 0 0 0 14.166-14.284v-68.554a14.267 14.267 0 0 0-14.166-14.285zM589.805 337.7v24.553a5.109 5.109 0 0 1-4.714 5.144 4.949 4.949 0 0 1-3.664-1.38 5.029 5.029 0 0 1-1.54-3.624v-24.7a11.331 11.331 0 1 1 9.917 0zm-29.068-44.564z" class="cls-3" data-name="Path 10733" transform="translate(2193.355 -75.1)"/>
                <g id="Path_17535" class="cls-4" data-name="Path 17535">
                    <path d="M31.831 62.162a30.232 30.232 0 0 1-21.447-8.884A30.232 30.232 0 0 1 1.5 31.831a30.232 30.232 0 0 1 8.884-21.447A30.232 30.232 0 0 1 31.83 1.5a30.232 30.232 0 0 1 21.447 8.884 30.232 30.232 0 0 1 8.884 21.447 30.232 30.232 0 0 1-8.884 21.447 30.232 30.232 0 0 1-21.447 8.884z" class="cls-12" transform="translate(2747.138 239.324)"/>
                    <path d="M31.831 3a28.739 28.739 0 0 0-20.387 8.444A28.739 28.739 0 0 0 3 31.831a28.739 28.739 0 0 0 8.444 20.387 28.739 28.739 0 0 0 20.387 8.444 28.739 28.739 0 0 0 20.387-8.444 28.739 28.739 0 0 0 8.444-20.387 28.739 28.739 0 0 0-8.444-20.387A28.739 28.739 0 0 0 31.83 3m0-3c17.58 0 31.831 14.251 31.831 31.831S49.411 63.662 31.831 63.662 0 49.411 0 31.831 14.251 0 31.831 0z" class="cls-13" transform="translate(2747.138 239.324)"/>
                </g>
                <path id="Path_18302" d="M11.024 0h75.6a11.126 11.126 0 0 1 0 22.251h-75.6a11.126 11.126 0 0 1 0-22.251z" class="cls-5" data-name="Path 18302" transform="translate(2729.447 276.821)"/>
                <g id="Group_19542" data-name="Group 19542" transform="translate(2736.864 274.702)">
                    <text id="_" class="cls-6" data-name="******" transform="translate(0 26)">
                        <tspan x="0" y="0">******</tspan>
                    </text>
                </g>
                <g id="Group_19543" data-name="Group 19543" transform="translate(2801.748 222.206)">
                    <path id="Path_18299" d="M-.4-.128h14.861l-.029 7.973H-.4z" class="cls-7" data-name="Path 18299" transform="translate(-1.973 -12)"/>
                </g>
                <g id="Group_19545" data-name="Group 19545" transform="translate(2759.896 233.732)">
                    <path id="Path_16420" d="M-351.461 1171.3a18.054 18.054 0 0 1 17.661 18.74 18.085 18.085 0 0 1-18.547 17.489 18.129 18.129 0 0 1-17.687-18.8 18.09 18.09 0 0 1 18.573-17.429zm10.557 29.479a15.741 15.741 0 0 0 4.124-16.146 15.747 15.747 0 0 0-16.06-11.067 15.809 15.809 0 0 0-14.46 11.934 15.654 15.654 0 0 0 4.192 15.074 11.578 11.578 0 0 1 6.416-7.052 11.1 11.1 0 0 1 9.509.088 11.631 11.631 0 0 1 6.283 7.168z" class="cls-8" data-name="Path 16420" transform="translate(370.044 -1171.289)"/>
                    <path id="Path_16422" d="M-324.61 1204.7a6.678 6.678 0 0 1-6.669-5.588 6.706 6.706 0 0 1 4.835-7.652 6.751 6.751 0 0 1 7.994 3.744 6.768 6.768 0 0 1-4.7 9.368 9.242 9.242 0 0 1-1.46.128z" class="cls-9" data-name="Path 16422" transform="translate(342.623 -1185.407)"/>
                </g>
            </g>
            <path id="Path_18303" d="M-11239.852 775.33s.394 3.99-3.528 3.99 4.584 1.209 4.584 1.209z" class="cls-7" data-name="Path 18303" transform="translate(11341.569 -739.277)"/>
            <path id="Path_18304" d="M-11243.225 775.362s-.725 3.974 3.2 3.974-4.583 1.209-4.583 1.209z" class="cls-7" data-name="Path 18304" transform="translate(11334.999 -739.276)"/>
            <ellipse id="Ellipse_862" cx="68" cy="8" class="cls-10" data-name="Ellipse 862" rx="68" ry="8" transform="translate(0 173.161)"/>
        </g>
    </g>
    <path id="Rectangle_4144" d="M0 0h227v227H0z" class="cls-11" data-name="Rectangle 4144"/>
</svg>
